<?xml version="1.0" encoding="iso-8859-1"?>
<!-- Uploaded to: SVG Repo, www.svgrepo.com, Generator: SVG Repo Mixer Tools -->
<svg fill="#000000" height="800px" width="800px" version="1.1" id="Layer_1" xmlns="http://www.w3.org/2000/svg" xmlns:xlink="http://www.w3.org/1999/xlink" 
	 viewBox="0 0 512 512" xml:space="preserve">
<g>
	<g>
		<path d="M480.235,113.04h-18.944c5.291-7.616,12.395-18.859,17.088-26.347c1.792-2.901,2.112-6.485,0.832-9.643
			c-1.28-3.157-3.989-5.525-7.296-6.336c-29.312-7.339-61.376,2.176-81.813,24.192c-3.712,4.011-9.621,10.283-17.173,18.155H74.667
			C33.493,113.062,0,146.555,0,187.728c0,5.888,4.779,10.667,10.667,10.667h256c5.888,0,10.581-4.437,10.581-10.304
			c0.149-0.299,3.605-5.739,30.144-9.664c-60.373,57.707-142.784,129.579-217.429,170.901
			c-13.184,7.296-22.336,19.968-25.088,34.709c-2.773,14.763,1.173,29.867,10.859,41.515c9.643,11.563,23.744,18.176,38.72,18.176
			c8.704,0,17.323-2.304,24.896-6.656c65.003-37.397,189.12-136.875,280.277-262.123c11.243,0.256,22.101,0.576,31.915,0.875
			c10.731,0.341,20.352,0.619,28.16,0.768h0.533c8.469,0,16.448-3.285,22.443-9.28c6.016-5.995,9.323-13.973,9.323-22.485
			C512,127.291,497.749,113.04,480.235,113.04z M149.333,379.707c-5.888,0-10.667-4.779-10.667-10.667s4.779-10.667,10.667-10.667
			S160,363.152,160,369.04S155.221,379.707,149.333,379.707z M298.667,262.374c-5.888,0-10.667-4.779-10.667-10.667
			c0-5.888,4.779-10.667,10.667-10.667s10.667,4.779,10.667,10.667C309.333,257.595,304.555,262.374,298.667,262.374z
			 M332.053,154.448c-32.021,2.027-63.701,6.677-73.195,22.592H22.4c4.949-24.32,26.496-42.667,52.267-42.667h277.483
			C345.813,140.774,339.093,147.494,332.053,154.448z M405.333,145.04c-5.888,0-10.667-4.779-10.667-10.667
			s4.779-10.667,10.667-10.667c5.888,0,10.667,4.779,10.667,10.667S411.221,145.04,405.333,145.04z M487.616,152.166
			c-1.984,1.963-4.587,3.051-7.381,3.051v10.667l-0.171-10.667c-7.744-0.128-17.259-0.427-27.883-0.747
			c-5.696-0.171-11.691-0.363-17.92-0.512c4.416-6.464,8.661-13.013,12.864-19.584h33.131c5.76,0,10.432,4.672,10.432,10.432
			C490.667,147.6,489.579,150.224,487.616,152.166z"/>
	</g>
</g>
</svg>